<svg xmlns="http://www.w3.org/2000/svg" viewBox="0 3.1500000953674316 147.4499969482422 60.54999923706055" data-asc="1.048" width="147.4499969482422" height="60.54999923706055"><defs/><g fill="#ffffff"><g transform="translate(0, 0)"><path d="M24.90 34.75Q21.45 34.75 18.63 36.60Q15.80 38.45 14.10 41.35Q17.55 40.75 21.23 40.75Q24.90 40.75 28 41.40Q29.05 39.40 29.05 37.90Q29.05 34.75 24.90 34.75M1.10 50.35Q1.10 51.85 2.73 52.78Q4.35 53.70 7.43 53.70Q10.50 53.70 13.75 52.65Q11.60 50.80 11.60 47.75Q11.60 44.70 12.90 42.10Q7.55 43.30 4.33 45.70Q1.10 48.10 1.10 50.35M20.45 54.05Q28.60 54.05 36.20 47.05Q33.95 44.00 29.15 42.45Q27.35 45.65 23.75 48.53Q20.15 51.40 15.50 52.90Q17.45 54.05 20.45 54.05M13.80 41.90Q12.40 44.60 12.40 47.60Q12.40 50.60 14.65 52.40Q18.85 50.85 22.35 47.95Q25.85 45.05 27.65 42.00Q24.40 41.25 20.85 41.25Q17.30 41.25 13.80 41.90M64.30 17.80Q62.75 19.00 61.63 20.00Q60.50 21.00 58.75 23.15Q57 25.30 56.08 26.50Q55.15 27.70 53.13 30.48Q51.10 33.25 50.25 34.40Q55.85 33.10 61.28 29.78Q66.70 26.45 69.83 23.03Q72.95 19.60 72.95 17.45Q72.95 15.60 70.05 15.60Q67.15 15.60 64.30 17.80M44.20 35.15Q45.70 35.15 46.50 35.05Q52.90 26.30 55.85 23.15Q63.30 15.05 70.65 15.05Q73.65 15.05 73.65 17.30Q73.65 19.10 71.73 21.73Q69.80 24.35 66.67 27.00Q63.55 29.65 58.98 31.93Q54.40 34.20 49.70 35.15Q43.55 43.40 38.30 47.70Q39.60 49.70 39.60 51.85Q39.60 55.70 35.52 58.88Q31.45 62.05 23.50 63.25L23.50 62.70Q30.45 61.60 34.15 58.53Q37.85 55.45 37.85 51.70Q37.85 50.15 37.15 48.60Q29.05 54.70 19.95 54.70Q16.55 54.70 14.45 53.25Q10.70 54.25 7.25 54.25Q3.80 54.25 1.90 53.13Q0 52.00 0 50.25Q0 47.75 3.53 45.20Q7.05 42.65 13.20 41.50Q14.95 38.25 18.18 36.15Q21.40 34.05 25.50 34.05Q28.05 34.05 29.30 35.13Q30.55 36.20 30.55 38.00Q30.55 39.80 29.50 41.80Q34.25 43.15 37.15 46.20Q40.80 42.60 46 35.65Q44.60 35.75 43.80 35.75Q38.05 35.75 35.08 33.13Q32.10 30.50 32.10 26.55Q32.10 21.40 36.77 17.18Q41.45 12.95 49.10 12.95Q50.80 12.95 52.25 13.15L52 13.85Q50.10 13.60 48.75 13.60Q41.70 13.60 37.43 17.53Q33.15 21.45 33.15 26.30Q33.15 30.10 35.98 32.63Q38.80 35.15 44.20 35.15ZM99.10 31.45Q98.40 31.45 98.40 31.75Q98.40 32.05 98.80 32.40Q99.80 33.20 102.05 33.20Q102.65 33.20 103 33.15Q101.80 31.45 99.10 31.45M59.15 41.50Q63.25 40.75 66.98 40.75Q70.70 40.75 73.80 41.40Q74.85 39.40 74.85 37.90Q74.85 34.75 70.70 34.75Q67.15 34.75 64.08 36.68Q61 38.60 59.15 41.50M61.55 52.85Q63.40 53.55 66.23 53.55Q69.05 53.55 73.65 51.20Q78.45 48.75 81.15 46.05Q78.90 43.70 74.95 42.45Q73.20 45.60 69.65 48.45Q66.10 51.30 61.55 52.85M56.55 47.25Q56.55 44.80 57.90 42.30Q52.90 43.55 49.90 45.88Q46.90 48.20 46.90 50.35Q46.90 51.85 48.53 52.78Q50.15 53.70 53.25 53.70Q56.35 53.70 59.45 52.70Q56.55 50.90 56.55 47.25M73.45 42.00Q70.20 41.25 66.48 41.25Q62.75 41.25 58.75 42.10Q57.30 44.60 57.30 47.10Q57.30 50.70 60.45 52.40Q64.65 50.85 68.15 47.95Q71.65 45.05 73.45 42.00M102.65 54.65L103.40 54.65Q106.35 54.65 109.05 53.25Q111.75 51.85 113.48 49.80Q115.20 47.75 116.20 45.60Q117.20 43.45 117.20 41.80Q117.20 39.95 114.90 39.95Q113.30 39.95 111.25 40.95Q109.20 41.95 107.25 43.73Q105.30 45.50 103.98 48.35Q102.65 51.20 102.65 54.40L102.65 54.65M77.25 26.70L77.95 26.70Q82.45 26.70 86.63 25.43Q90.80 24.15 93.55 22.25Q96.30 20.35 97.93 18.23Q99.55 16.10 99.55 14.40Q99.55 12.70 98.13 11.73Q96.70 10.75 93.90 10.75Q89.65 10.75 85.70 13.25Q81.75 15.75 79.47 19.25Q77.20 22.75 77.20 25.85L77.25 26.70M85.35 3.15L85.50 3.75Q77.70 4.85 72.48 9.68Q67.25 14.50 67.25 19.40Q67.25 22.30 69.35 24.23Q71.45 26.15 75.65 26.60Q75.55 25.70 75.55 25.20Q75.55 22.70 76.95 20.03Q78.35 17.35 80.75 15.08Q83.15 12.80 86.75 11.33Q90.35 9.85 93.88 9.85Q97.40 9.85 98.93 10.98Q100.45 12.10 100.45 14.05Q100.45 16.00 98.80 18.28Q97.15 20.55 94.30 22.60Q91.45 24.65 87.03 26.00Q82.60 27.35 77.65 27.35L77.35 27.35Q78.45 31.60 84.70 31.60Q87.90 31.60 92.35 29.70Q96.80 27.80 101.50 23.90L101.80 24.30Q100.30 25.60 98 27.18Q95.70 28.75 91.70 30.45Q87.70 32.15 84.45 32.15Q77.25 32.15 75.85 27.30Q71.20 26.95 68.83 24.85Q66.45 22.75 66.45 19.60Q66.45 14.55 71.78 9.55Q77.10 4.55 85.35 3.15M119.35 13.80L119.20 14.30Q112.85 16.60 104.45 25.00Q103.45 26.00 98.85 30.85L99 30.85Q99.95 30.85 101.40 31.33Q102.85 31.80 103.75 33.05Q108.25 32.30 113.80 27.70Q116.30 25.70 118.93 23.33Q121.55 20.95 124.33 18.65Q127.10 16.35 129.95 14.50Q136.30 10.30 142.75 10.30Q145.10 10.30 146.28 11.38Q147.45 12.45 147.45 14.20Q147.45 17.85 143.53 21.48Q139.60 25.10 134.25 25.10Q132.85 25.10 132.13 24.50Q131.40 23.90 131.40 22.90Q131.40 21.05 133.45 19.08Q135.50 17.10 138.50 16.55L138.50 16.80Q135.65 17.40 133.82 19.23Q132 21.05 132 22.70Q132 24.60 134.40 24.60Q139.05 24.60 142.82 21.08Q146.60 17.55 146.60 14.15Q146.60 10.75 142.10 10.75Q138.95 10.75 135.63 12.30Q132.30 13.85 129.53 16.20Q126.75 18.55 123.55 21.40Q120.35 24.25 117.50 26.75Q114.65 29.25 111.08 31.18Q107.50 33.10 104.05 33.60Q104.60 34.55 104.60 36.18Q104.60 37.80 103.85 39.43Q103.10 41.05 102 42.20Q100.90 43.35 99.80 44.50Q97.20 47.15 97.20 49.90Q97.20 54.05 101.95 54.55L101.95 54.10Q101.95 50.75 103.33 47.85Q104.70 44.95 106.78 43.13Q108.85 41.30 111.13 40.28Q113.40 39.25 115.20 39.25Q119.05 39.25 119.05 42.40Q119.05 44.20 117.83 46.43Q116.60 48.65 114.55 50.60Q112.50 52.55 109.48 53.88Q106.45 55.20 103.20 55.20L102.65 55.20Q102.90 58.75 105.28 60.98Q107.65 63.20 112.25 63.20Q113.85 63.20 115.65 62.60L116.05 62.85Q114.50 63.70 111.55 63.70Q107.05 63.70 104.68 61.33Q102.30 58.95 102 55.15Q98.90 54.80 97.50 52.93Q96.10 51.05 96.10 48.85Q96.10 46.65 96.85 45.08Q97.60 43.50 98.70 42.30Q99.80 41.10 100.90 39.90Q103.45 37.10 103.45 34.65Q103.45 34.30 103.25 33.70Q102.70 33.75 101.65 33.75Q98.85 33.75 97.10 32.75L87.70 42.75Q86.65 43.90 83.25 46.55Q85.40 49.00 85.40 51.85Q85.40 55.70 81.33 58.88Q77.25 62.05 69.30 63.25L69.30 62.70Q76.25 61.60 79.95 58.53Q83.65 55.45 83.65 51.70Q83.65 49.40 82.20 47.35Q72.65 54.20 65.65 54.20Q62.45 54.20 60.35 53.20Q56.70 54.25 53.15 54.25Q49.60 54.25 47.70 53.13Q45.80 52.00 45.80 50.25Q45.80 47.85 49.10 45.38Q52.40 42.90 58.25 41.65Q60.20 38.40 63.68 36.23Q67.15 34.05 71.30 34.05Q73.85 34.05 75.10 35.13Q76.35 36.20 76.35 38.00Q76.35 39.80 75.30 41.80Q79.35 42.95 82 45.25L98.75 28.55Q103.10 23.75 108.55 19.58Q114 15.40 119.35 13.80Z"/></g></g></svg>